HIERARCHY
ROOT newVegas:Hips
{
	OFFSET 0.000000 96.479958 0.000000
	CHANNELS 6 Xposition Yposition Zposition Xrotation Yrotation Zrotation
	JOINT newVegas:Pelvis
	{
		OFFSET 0.000000 0.000000 0.000000
		CHANNELS 3 Xrotation Yrotation Zrotation
		JOINT newVegas:LeftUpLeg
		{
			OFFSET 18.735201 -5.666702 -4.541200
			CHANNELS 3 Xrotation Yrotation Zrotation
			JOINT newVegas:LeftLeg
			{
				OFFSET -0.021200 -31.938179 0.493100
				CHANNELS 3 Xrotation Yrotation Zrotation
				JOINT newVegas:LeftFoot
				{
					OFFSET 0.021200 -31.938179 -4.336299
					CHANNELS 3 Xrotation Yrotation Zrotation
					JOINT newVegas:LeftToeBase
					{
						OFFSET 0.943001 -26.722000 15.023500
						CHANNELS 3 Xrotation Yrotation Zrotation
						End Site
						{
							OFFSET 0.000000 30.670183 0.000000
						}
					}
				}
				JOINT newVegas:Left_PantLeg
				{
					OFFSET 0.663870 -9.044666 -1.108900
					CHANNELS 3 Xrotation Yrotation Zrotation
					End Site
					{
						OFFSET 1.415995 20.635357 0.000000
					}
				}
			}
		}
		JOINT newVegas:RightUpLeg
		{
			OFFSET -18.735201 -5.666702 -4.541200
			CHANNELS 3 Xrotation Yrotation Zrotation
			JOINT newVegas:RightLeg
			{
				OFFSET 0.018946 -31.938133 0.493100
				CHANNELS 3 Xrotation Yrotation Zrotation
				JOINT newVegas:RightFoot
				{
					OFFSET -0.018946 -31.938126 -4.336299
					CHANNELS 3 Xrotation Yrotation Zrotation
					JOINT newVegas:RightToeBase
					{
						OFFSET -0.943001 -26.722004 15.023500
						CHANNELS 3 Xrotation Yrotation Zrotation
						End Site
						{
							OFFSET 0.000000 30.670187 0.000000
						}
					}
				}
				JOINT newVegas:Right_PantLeg
				{
					OFFSET -0.661674 -9.044716 -1.108900
					CHANNELS 3 Xrotation Yrotation Zrotation
					End Site
					{
						OFFSET -1.415958 20.635269 0.000000
					}
				}
			}
		}
	}
	JOINT newVegas:Spine
	{
		OFFSET 0.000000 10.199997 -0.299500
		CHANNELS 3 Xrotation Yrotation Zrotation
		JOINT newVegas:Spine1
		{
			OFFSET 0.000000 11.900002 -1.516600
			CHANNELS 3 Xrotation Yrotation Zrotation
			JOINT newVegas:Spine2
			{
				OFFSET 0.000000 13.600006 -2.842500
				CHANNELS 3 Xrotation Yrotation Zrotation
				JOINT newVegas:Neck
				{
					OFFSET 0.000000 9.624100 -2.890100
					CHANNELS 3 Xrotation Yrotation Zrotation
					JOINT newVegas:Head
					{
						OFFSET 0.000000 14.068802 -1.351900
						CHANNELS 3 Xrotation Yrotation Zrotation
						JOINT newVegas:Hair_Back
						{
							OFFSET 0.000000 3.231903 -17.524799
							CHANNELS 3 Xrotation Yrotation Zrotation
							End Site
							{
								OFFSET 0.000000 19.849884 0.000000
							}
						}
						JOINT newVegas:Hair_Front
						{
							OFFSET 0.000000 31.260406 4.573800
							CHANNELS 3 Xrotation Yrotation Zrotation
							JOINT newVegas:Hair_Front1
							{
								OFFSET 0.000000 2.284103 11.993300
								CHANNELS 3 Xrotation Yrotation Zrotation
								JOINT newVegas:Hair_Front2
								{
									OFFSET 0.000000 2.284103 11.993300
									CHANNELS 3 Xrotation Yrotation Zrotation
									End Site
									{
										OFFSET 0.000000 12.208862 0.000000
									}
								}
							}
						}
						JOINT newVegas:Jowel
						{
							OFFSET 0.000000 -7.458206 6.864100
							CHANNELS 3 Xrotation Yrotation Zrotation
							End Site
							{
								OFFSET 0.000000 19.849884 0.000000
							}
						}
					}
				}
				JOINT newVegas:LeftShoulder
				{
					OFFSET 15.263000 10.923401 -0.547700
					CHANNELS 3 Xrotation Yrotation Zrotation
					JOINT newVegas:LeftArm
					{
						OFFSET 25.438599 -2.830597 -13.032500
						CHANNELS 3 Xrotation Yrotation Zrotation
						JOINT newVegas:LeftForeArm
						{
							OFFSET 29.960503 0.000000 0.000000
							CHANNELS 3 Xrotation Yrotation Zrotation
							JOINT newVegas:LeftHand
							{
								OFFSET 27.849251 0.000000 0.000000
								CHANNELS 3 Xrotation Yrotation Zrotation
								JOINT newVegas:LeftHandThumb1
								{
									OFFSET 4.487587 -3.305161 6.305391
									CHANNELS 3 Xrotation Yrotation Zrotation
									JOINT newVegas:LeftHandThumb2
									{
										OFFSET 5.480453 -3.164139 3.164143
										CHANNELS 3 Xrotation Yrotation Zrotation
										JOINT newVegas:LeftHandThumb3
										{
											OFFSET 5.159721 -2.978973 2.978967
											CHANNELS 3 Xrotation Yrotation Zrotation
											End Site
											{
												OFFSET 2.494507 5.926697 1.738678
											}
										}
									}
								}
								JOINT newVegas:LeftHandIndex1
								{
									OFFSET 18.578728 -0.527832 5.208049
									CHANNELS 3 Xrotation Yrotation Zrotation
									JOINT newVegas:LeftHandIndex2
									{
										OFFSET 3.192009 0.000000 0.000000
										CHANNELS 3 Xrotation Yrotation Zrotation
										JOINT newVegas:LeftHandIndex3
										{
											OFFSET 3.835129 0.000000 0.000000
											CHANNELS 3 Xrotation Yrotation Zrotation
											End Site
											{
												OFFSET -0.034599 3.816971 0.371180
											}
										}
									}
								}
								JOINT newVegas:LeftHandMiddle1
								{
									OFFSET 18.476105 0.000000 0.000000
									CHANNELS 3 Xrotation Yrotation Zrotation
									JOINT newVegas:LeftHandMiddle2
									{
										OFFSET 3.324875 0.000000 0.000000
										CHANNELS 3 Xrotation Yrotation Zrotation
										JOINT newVegas:LeftHandMiddle3
										{
											OFFSET 4.596550 0.000000 0.000000
											CHANNELS 3 Xrotation Yrotation Zrotation
											End Site
											{
												OFFSET 0.057701 4.578827 0.399218
											}
										}
									}
								}
								JOINT newVegas:LeftHandRing1
								{
									OFFSET 17.732719 0.121887 -4.201567
									CHANNELS 3 Xrotation Yrotation Zrotation
									JOINT newVegas:LeftHandRing2
									{
										OFFSET 2.733170 0.000000 0.000000
										CHANNELS 3 Xrotation Yrotation Zrotation
										JOINT newVegas:LeftHandRing3
										{
											OFFSET 3.178268 0.000000 0.000000
											CHANNELS 3 Xrotation Yrotation Zrotation
											End Site
											{
												OFFSET 0.119102 3.170624 0.185394
											}
										}
									}
								}
								JOINT newVegas:LeftHandPinky1
								{
									OFFSET 15.989624 -0.606689 -7.535461
									CHANNELS 3 Xrotation Yrotation Zrotation
									JOINT newVegas:LeftHandPinky2
									{
										OFFSET 2.538986 0.000000 0.000000
										CHANNELS 3 Xrotation Yrotation Zrotation
										JOINT newVegas:LeftHandPinky3
										{
											OFFSET 2.593102 0.000000 0.000000
											CHANNELS 3 Xrotation Yrotation Zrotation
											End Site
											{
												OFFSET -0.150902 2.584198 0.152708
											}
										}
									}
								}
							}
							JOINT newVegas:Left_Sleeve
							{
								OFFSET 0.267448 -0.649796 0.577675
								CHANNELS 3 Xrotation Yrotation Zrotation
								End Site
								{
									OFFSET 0.000000 15.991241 0.000000
								}
							}
							JOINT newVegas:Left_CapeC
							{
								OFFSET 15.715958 -8.608795 -6.935905
								CHANNELS 3 Xrotation Yrotation Zrotation
								JOINT newVegas:Left_CapeC1
								{
									OFFSET 0.000000 -8.688499 0.000000
									CHANNELS 3 Xrotation Yrotation Zrotation
									End Site
									{
										OFFSET 0.000000 8.688499 0.000000
									}
								}
							}
						}
						JOINT newVegas:Left_CapeB
						{
							OFFSET 26.118385 -8.608795 -7.079235
							CHANNELS 3 Xrotation Yrotation Zrotation
							JOINT newVegas:Left_CapeB1
							{
								OFFSET 0.000000 -8.688499 0.000000
								CHANNELS 3 Xrotation Yrotation Zrotation
								End Site
								{
									OFFSET 0.000000 8.688499 0.000000
								}
							}
						}
						JOINT newVegas:Left_CapeA
						{
							OFFSET 5.115639 -8.608795 -10.395809
							CHANNELS 3 Xrotation Yrotation Zrotation
							JOINT newVegas:Left_CapeA1
							{
								OFFSET 0.000000 -8.688499 0.000000
								CHANNELS 3 Xrotation Yrotation Zrotation
								End Site
								{
									OFFSET 0.000000 8.688499 0.000000
								}
							}
						}
					}
				}
				JOINT newVegas:RightShoulder
				{
					OFFSET -15.263000 10.923401 -0.547700
					CHANNELS 3 Xrotation Yrotation Zrotation
					JOINT newVegas:RightArm
					{
						OFFSET -25.438599 -2.830597 -13.032500
						CHANNELS 3 Xrotation Yrotation Zrotation
						JOINT newVegas:RightForeArm
						{
							OFFSET -29.960503 0.000000 0.000000
							CHANNELS 3 Xrotation Yrotation Zrotation
							JOINT newVegas:RightHand
							{
								OFFSET -27.849251 0.000000 0.000000
								CHANNELS 3 Xrotation Yrotation Zrotation
								JOINT newVegas:RightHandThumb1
								{
									OFFSET -4.487587 -3.305161 6.305391
									CHANNELS 3 Xrotation Yrotation Zrotation
									JOINT newVegas:RightHandThumb2
									{
										OFFSET -5.480453 -3.164139 3.164143
										CHANNELS 3 Xrotation Yrotation Zrotation
										JOINT newVegas:RightHandThumb3
										{
											OFFSET -5.159721 -2.978973 2.978967
											CHANNELS 3 Xrotation Yrotation Zrotation
											End Site
											{
												OFFSET -2.494507 5.926697 1.738678
											}
										}
									}
								}
								JOINT newVegas:RightHandIndex1
								{
									OFFSET -18.578728 -0.527832 5.208049
									CHANNELS 3 Xrotation Yrotation Zrotation
									JOINT newVegas:RightHandIndex2
									{
										OFFSET -3.192009 0.000000 0.000000
										CHANNELS 3 Xrotation Yrotation Zrotation
										JOINT newVegas:RightHandIndex3
										{
											OFFSET -3.835129 0.000000 0.000000
											CHANNELS 3 Xrotation Yrotation Zrotation
											End Site
											{
												OFFSET 0.034599 3.816971 0.371180
											}
										}
									}
								}
								JOINT newVegas:RightHandMiddle1
								{
									OFFSET -18.476105 0.000000 0.000000
									CHANNELS 3 Xrotation Yrotation Zrotation
									JOINT newVegas:RightHandMiddle2
									{
										OFFSET -3.324875 0.000000 0.000000
										CHANNELS 3 Xrotation Yrotation Zrotation
										JOINT newVegas:RightHandMiddle3
										{
											OFFSET -4.596550 0.000000 0.000000
											CHANNELS 3 Xrotation Yrotation Zrotation
											End Site
											{
												OFFSET -0.057701 4.578827 0.399218
											}
										}
									}
								}
								JOINT newVegas:RightHandRing1
								{
									OFFSET -17.732719 0.121887 -4.201567
									CHANNELS 3 Xrotation Yrotation Zrotation
									JOINT newVegas:RightHandRing2
									{
										OFFSET -2.733170 0.000000 0.000000
										CHANNELS 3 Xrotation Yrotation Zrotation
										JOINT newVegas:RightHandRing3
										{
											OFFSET -3.178268 0.000000 0.000000
											CHANNELS 3 Xrotation Yrotation Zrotation
											End Site
											{
												OFFSET -0.119102 3.170624 0.185394
											}
										}
									}
								}
								JOINT newVegas:RightHandPinky1
								{
									OFFSET -15.989624 -0.606689 -7.535461
									CHANNELS 3 Xrotation Yrotation Zrotation
									JOINT newVegas:RightHandPinky2
									{
										OFFSET -2.538986 0.000000 0.000000
										CHANNELS 3 Xrotation Yrotation Zrotation
										JOINT newVegas:RightHandPinky3
										{
											OFFSET -2.593102 0.000000 0.000000
											CHANNELS 3 Xrotation Yrotation Zrotation
											End Site
											{
												OFFSET 0.150902 2.584198 0.152708
											}
										}
									}
								}
							}
							JOINT newVegas:Right_CapeC
							{
								OFFSET -15.715958 -8.608795 -6.935905
								CHANNELS 3 Xrotation Yrotation Zrotation
								JOINT newVegas:Right_CapeC1
								{
									OFFSET 0.000000 -8.688499 0.000000
									CHANNELS 3 Xrotation Yrotation Zrotation
									End Site
									{
										OFFSET 0.000000 8.688499 0.000000
									}
								}
							}
							JOINT newVegas:Right_Sleeve
							{
								OFFSET -0.267448 -0.649994 0.577675
								CHANNELS 3 Xrotation Yrotation Zrotation
								End Site
								{
									OFFSET 0.000000 15.991302 0.000000
								}
							}
						}
						JOINT newVegas:Right_CapeA
						{
							OFFSET -5.115540 -8.608795 -10.395824
							CHANNELS 3 Xrotation Yrotation Zrotation
							JOINT newVegas:Right_CapeA1
							{
								OFFSET 0.000000 -8.688499 0.000000
								CHANNELS 3 Xrotation Yrotation Zrotation
								End Site
								{
									OFFSET 0.000000 8.688499 0.000000
								}
							}
						}
						JOINT newVegas:Right_CapeB
						{
							OFFSET -26.118187 -8.608795 -7.079266
							CHANNELS 3 Xrotation Yrotation Zrotation
							JOINT newVegas:Right_CapeB1
							{
								OFFSET 0.000000 -8.688499 0.000000
								CHANNELS 3 Xrotation Yrotation Zrotation
								End Site
								{
									OFFSET 0.000000 8.688499 0.000000
								}
							}
						}
					}
				}
				JOINT newVegas:Left_Collar
				{
					OFFSET 18.625099 8.655502 8.828100
					CHANNELS 3 Xrotation Yrotation Zrotation
					JOINT newVegas:Left_Collar1
					{
						OFFSET 14.783401 10.540405 -1.259500
						CHANNELS 3 Xrotation Yrotation Zrotation
						End Site
						{
							OFFSET 0.000000 18.199875 0.000000
						}
					}
				}
				JOINT newVegas:Collar_Back
				{
					OFFSET 0.000000 15.630707 -20.132601
					CHANNELS 3 Xrotation Yrotation Zrotation
					End Site
					{
						OFFSET 0.000000 22.523010 0.000000
					}
				}
				JOINT newVegas:Left_Peck
				{
					OFFSET 17.239599 -5.132599 25.482599
					CHANNELS 3 Xrotation Yrotation Zrotation
					End Site
					{
						OFFSET 0.000000 22.523010 0.000000
					}
				}
				JOINT newVegas:Right_Peck
				{
					OFFSET -17.239599 -5.132202 25.482599
					CHANNELS 3 Xrotation Yrotation Zrotation
					End Site
					{
						OFFSET 0.000000 22.523010 0.000000
					}
				}
				JOINT newVegas:Right_Collar
				{
					OFFSET -18.625099 8.655792 8.828100
					CHANNELS 3 Xrotation Yrotation Zrotation
					JOINT newVegas:Right_Collar1
					{
						OFFSET -14.783401 10.539993 -1.259500
						CHANNELS 3 Xrotation Yrotation Zrotation
						End Site
						{
							OFFSET 0.000000 18.199631 0.000000
						}
					}
				}
			}
		}
		JOINT newVegas:Belly
		{
			OFFSET 0.000000 -6.540398 9.014299
			CHANNELS 3 Xrotation Yrotation Zrotation
			End Site
			{
				OFFSET 0.000000 11.566666 0.000000
			}
		}
	}
	JOINT newVegas:ElvisFacialAnim_Joint
	{
		OFFSET 1.000000 -95.330101 -8.825800
		CHANNELS 3 Xrotation Yrotation Zrotation
		End Site
		{
			OFFSET 0.000000 35.315800 0.000000
		}
	}
}
MOTION
Frames: 4
Frame Time: 0.033333
-1.521451 78.611580 4.680413 1.117820 -33.833410 -6.729829 0.000000 -0.000003 0.000000 -60.705150 -2.934781 25.468648 97.958484 -4.547026 -4.942569 12.284074 -4.398910 2.135781 0.000001 0.000000 0.000001 -0.000003 -0.000000 0.000001 -42.147684 -12.567435 18.561515 71.578094 5.892829 -7.525352 -27.118020 -6.206633 -10.744673 -0.000000 -0.000000 -0.000000 0.000000 -0.000001 -0.000000 10.897693 -1.509531 1.123105 14.406126 -0.526687 6.543785 14.455829 0.704780 5.766599 -3.785474 1.486038 -0.876094 -3.785485 1.486042 -0.876103 -0.000000 0.000001 -0.000000 -3.785551 1.486076 -0.876096 -3.785478 1.486037 -0.876103 0.000002 0.000000 -0.000000 -0.000000 0.000001 -0.000000 6.805726 -13.316641 0.531906 -59.251201 -11.661874 -47.807011 -88.229283 16.442349 -82.336756 -43.789767 -8.088309 -2.697604 0.699129 9.503413 -2.418095 5.975199 12.647536 1.348344 -0.000000 -0.000000 -0.000005 9.479706 -1.289793 -20.785565 0.709471 2.796425 -28.467101 -0.000001 -0.000001 0.000003 10.058170 -1.800604 -20.644704 1.774246 4.200440 -45.782099 -0.000002 -0.000002 -0.000001 1.254239 -0.073763 -17.945776 3.754109 5.463582 -68.965267 0.000002 0.000001 0.000002 -7.938261 1.609072 -6.495675 2.210586 4.583671 -51.475178 -0.000001 -0.000003 -0.000000 -0.000000 0.000002 0.000001 -0.000000 0.000002 0.000001 -0.000001 0.000002 0.000002 0.000001 0.000001 -0.000000 0.000001 0.000000 -0.000000 0.000001 0.000001 -0.000000 0.000001 0.000000 -0.000001 8.927307 17.545195 -1.408877 -18.841277 40.570921 22.334778 43.356268 115.315504 -48.109120 -21.139393 10.412783 -15.059766 13.942475 -4.273698 -5.300366 7.113151 -20.767518 -2.619488 0.000001 -0.000000 0.000003 0.357789 -5.832695 5.175864 0.094383 -0.933653 11.539890 -0.000001 -0.000000 -0.000002 3.764099 -12.080539 1.143793 5.714229 -4.535831 103.133500 0.000000 0.000000 -0.000000 -12.155600 -12.623935 9.228346 6.566902 -4.248398 114.232332 0.000000 0.000001 -0.000003 -17.635786 -10.496852 3.325417 4.993638 -4.644999 94.147929 0.000000 -0.000002 0.000001 -0.000000 0.000000 0.000001 -0.000001 0.000000 0.000003 -0.000000 -0.000000 -0.000000 0.000000 0.000000 -0.000001 0.000001 0.000000 0.000001 0.000000 0.000000 -0.000001 0.000001 0.000000 0.000002 0.000001 -0.000000 0.000002 0.000001 -0.000000 0.000002 0.000001 -0.000000 0.000002 0.000001 -0.000000 0.000002 0.000001 -0.000000 0.000002 0.000001 -0.000000 0.000002 0.000001 -0.000000 0.000002 0.000000 -0.000001 -0.000000 0.000000 -0.000003 0.000000 
-2.886979 80.893677 20.198496 -1.858657 -30.659213 -5.567945 -0.000000 -0.000000 -0.000000 -62.751414 -5.571036 22.288591 82.385913 -3.353444 -4.313313 5.036144 -2.474093 -2.367338 -0.000002 -0.000000 -0.000000 -0.000000 0.000003 -0.000002 -21.374314 -7.387120 8.631984 67.172841 8.327854 -7.447507 -42.648729 -4.968334 -6.449740 -0.000000 -0.000002 -0.000000 0.000001 0.000000 -0.000003 12.137116 -1.530635 -2.486182 14.099589 -0.101998 6.966039 14.279681 1.330992 5.831702 -3.533604 1.247834 -0.830431 -3.533586 1.247837 -0.830429 0.000001 -0.000001 0.000000 -3.533582 1.247846 -0.830431 -3.533719 1.247861 -0.830431 -0.000000 0.000000 0.000001 0.000001 -0.000001 -0.000001 6.185531 -22.041108 1.551199 -57.938917 -9.520064 -42.740107 -89.740285 18.358854 -79.230556 -41.330718 -5.573416 -1.007578 0.699129 9.503413 -2.418093 5.975198 12.647534 1.348345 0.000001 -0.000006 -0.000005 9.479706 -1.289787 -20.785563 0.709473 2.796419 -28.467107 0.000001 -0.000000 -0.000002 10.058171 -1.800606 -20.644708 1.774244 4.200445 -45.782102 0.000003 0.000001 -0.000001 1.254235 -0.073756 -17.945774 3.754109 5.463585 -68.965267 0.000003 -0.000002 0.000001 -7.938263 1.609079 -6.495673 2.210583 4.583673 -51.475185 -0.000000 -0.000005 -0.000001 -0.000000 -0.000002 0.000001 -0.000000 -0.000002 0.000001 -0.000001 -0.000002 0.000001 0.000002 0.000000 -0.000000 0.000002 -0.000001 0.000000 0.000002 0.000000 -0.000000 0.000001 -0.000001 -0.000001 8.664618 18.763942 -1.572551 -18.029300 36.832509 24.356274 44.146395 115.292787 -48.931014 -19.693385 11.199006 -16.975015 13.942474 -4.273696 -5.300368 7.113153 -20.767518 -2.619488 0.000000 -0.000003 -0.000001 0.357789 -5.832694 5.175866 0.094383 -0.933652 11.539889 -0.000000 0.000001 0.000003 3.764099 -12.080537 1.143794 5.714229 -4.535830 103.133500 0.000000 -0.000000 -0.000000 -12.155597 -12.623932 9.228348 6.566902 -4.248405 114.232332 0.000002 0.000002 0.000003 -17.635787 -10.496852 3.325416 4.993645 -4.644997 94.147929 0.000001 -0.000005 -0.000001 -0.000000 0.000001 0.000000 -0.000000 0.000000 0.000000 -0.000000 0.000001 0.000000 -0.000001 0.000002 0.000001 -0.000000 0.000002 0.000001 -0.000001 0.000002 0.000001 -0.000000 0.000002 0.000003 -0.000003 -0.000001 0.000001 -0.000003 -0.000001 0.000001 -0.000003 -0.000001 0.000001 -0.000003 -0.000001 0.000001 -0.000003 -0.000001 0.000001 -0.000003 -0.000001 0.000001 -0.000003 -0.000001 0.000001 0.000000 0.000001 -0.000000 -0.000000 -0.000000 -0.000000 
-3.766929 82.086311 35.532078 -0.967527 -29.680088 -5.413510 0.000000 0.000000 -0.000000 -64.747065 -9.158118 21.783869 62.611668 -1.567729 -3.653845 8.807089 -0.837994 -5.700628 0.000000 -0.000000 -0.000000 -0.000001 0.000002 0.000000 0.785810 -7.896724 -0.513271 46.387366 13.122598 -5.235952 -45.785692 -3.184822 -0.370269 0.000000 -0.000000 -0.000000 -0.000000 0.000001 -0.000002 12.762564 -0.856925 -4.422739 14.200567 0.907162 6.863877 14.330843 2.425525 5.780967 -3.513166 1.110088 -0.706035 -3.513143 1.110069 -0.706034 0.000001 -0.000000 -0.000000 -3.513156 1.110080 -0.706041 -3.513146 1.110098 -0.706035 -0.000000 0.000001 -0.000001 0.000001 -0.000000 -0.000001 5.985690 -25.595403 1.953726 -58.401082 -9.757192 -40.862228 -88.896073 18.381559 -82.130354 -38.767898 -6.414474 2.737071 0.699127 9.503415 -2.418098 5.975198 12.647537 1.348346 -0.000000 -0.000008 -0.000007 9.479705 -1.289788 -20.785563 0.709473 2.796420 -28.467103 -0.000001 -0.000000 0.000002 10.058169 -1.800599 -20.644708 1.774245 4.200440 -45.782102 -0.000000 -0.000001 -0.000001 1.254234 -0.073756 -17.945774 3.754111 5.463584 -68.965274 -0.000000 0.000001 0.000002 -7.938264 1.609076 -6.495673 2.210585 4.583675 -51.475178 -0.000000 -0.000003 0.000000 0.000000 0.000001 -0.000000 0.000000 0.000001 -0.000000 -0.000001 0.000001 0.000000 0.000001 -0.000003 0.000002 0.000001 -0.000003 0.000001 0.000001 -0.000003 0.000002 -0.000000 -0.000003 0.000002 10.226465 21.173745 -2.318853 -19.607969 29.659055 28.448271 37.767251 119.486564 -41.483840 -15.275371 10.885493 -18.612066 13.942476 -4.273693 -5.300368 7.113156 -20.767520 -2.619485 -0.000000 0.000000 0.000001 0.357788 -5.832691 5.175866 0.094384 -0.933652 11.539890 -0.000001 0.000000 0.000002 3.764098 -12.080534 1.143792 5.714230 -4.535830 103.133500 -0.000000 -0.000000 0.000001 -12.155597 -12.623935 9.228347 6.566902 -4.248403 114.232332 0.000002 0.000001 -0.000006 -17.635787 -10.496847 3.325417 4.993638 -4.644998 94.147935 -0.000002 -0.000000 -0.000001 0.000001 -0.000001 0.000001 0.000001 -0.000000 -0.000001 0.000001 -0.000001 0.000001 -0.000001 0.000002 0.000000 -0.000001 0.000002 0.000002 -0.000001 0.000002 0.000000 -0.000000 0.000002 0.000004 0.000002 -0.000001 0.000000 0.000002 -0.000001 0.000000 0.000002 -0.000001 0.000000 0.000002 -0.000001 0.000000 0.000002 -0.000001 0.000000 0.000002 -0.000001 0.000000 0.000002 -0.000001 0.000000 -0.000002 0.000001 -0.000000 0.000000 0.000000 -0.000000 
-4.291151 85.723351 51.429749 -0.833970 -31.026691 -7.587086 -0.000000 0.000002 -0.000000 -56.281073 -10.053530 24.830936 41.020016 2.352431 -2.252526 8.937387 -0.621748 -7.935185 -0.000000 0.000001 -0.000000 0.000000 -0.000001 0.000000 7.678176 1.568444 -7.652654 33.724383 9.607575 5.941855 -21.839006 0.323836 -0.143432 0.000002 -0.000001 -0.000001 -0.000002 0.000003 -0.000003 12.934187 -0.445070 -4.187178 14.595424 1.141564 6.560004 14.547833 2.628990 5.902670 -3.551045 1.209423 -0.634286 -3.551064 1.209428 -0.634290 0.000002 -0.000000 0.000002 -3.551058 1.209439 -0.634290 -3.551043 1.209454 -0.634291 -0.000002 0.000002 -0.000001 0.000002 -0.000000 0.000002 5.863984 -26.172998 1.990900 -58.165802 -7.071594 -39.274199 -87.661503 18.070925 -84.982771 -37.183826 -6.480350 5.240882 0.699128 9.503413 -2.418097 5.975200 12.647537 1.348345 0.000001 -0.000002 -0.000003 9.479705 -1.289790 -20.785567 0.709472 2.796427 -28.467101 -0.000004 0.000001 -0.000003 10.058167 -1.800601 -20.644704 1.774245 4.200445 -45.782099 -0.000002 -0.000002 0.000000 1.254238 -0.073763 -17.945776 3.754110 5.463584 -68.965274 0.000000 0.000001 0.000000 -7.938264 1.609074 -6.495676 2.210588 4.583672 -51.475181 0.000002 -0.000005 -0.000000 -0.000001 0.000001 0.000000 -0.000001 0.000001 0.000000 -0.000002 0.000001 0.000001 -0.000002 0.000002 -0.000002 -0.000002 0.000001 -0.000003 -0.000002 0.000002 -0.000002 -0.000003 0.000001 -0.000002 13.243330 23.699153 -3.612967 -23.541010 27.846193 33.907999 37.420848 119.614316 -41.115550 -12.083162 10.918552 -16.498120 13.942475 -4.273698 -5.300369 7.113158 -20.767516 -2.619489 0.000000 -0.000002 -0.000001 0.357789 -5.832692 5.175865 0.094383 -0.933651 11.539888 -0.000000 -0.000000 -0.000002 3.764099 -12.080534 1.143792 5.714229 -4.535830 103.133500 -0.000001 0.000000 0.000000 -12.155599 -12.623930 9.228345 6.566898 -4.248404 114.232332 0.000000 0.000002 0.000003 -17.635789 -10.496849 3.325416 4.993635 -4.644999 94.147929 -0.000000 0.000003 -0.000000 -0.000000 -0.000001 0.000001 -0.000000 -0.000000 0.000001 -0.000000 -0.000001 0.000000 0.000001 -0.000001 -0.000000 0.000001 -0.000001 -0.000000 0.000001 -0.000001 -0.000000 0.000001 -0.000001 -0.000000 0.000001 0.000002 -0.000002 0.000001 0.000002 -0.000002 0.000001 0.000002 -0.000002 0.000001 0.000002 -0.000002 0.000001 0.000002 -0.000002 0.000001 0.000002 -0.000002 0.000001 0.000002 -0.000002 -0.000001 -0.000003 -0.000000 -0.000000 0.000002 -0.000000 
